<svg width="821" height="816" xmlns="http://www.w3.org/2000/svg" xmlns:xlink="http://www.w3.org/1999/xlink" overflow="hidden"><defs><clipPath id="clip0"><rect x="288" y="357" width="821" height="816"/></clipPath></defs><g clip-path="url(#clip0)" transform="translate(-288 -357)"><path d="M293 767.5C293 543.549 474.772 362 699 362 923.228 362 1105 543.549 1105 767.5 1105 991.452 923.228 1173 699 1173 474.772 1173 293 991.452 293 767.5ZM407.894 767.5C407.894 927.997 538.227 1058.11 699 1058.11 859.773 1058.11 990.106 927.997 990.106 767.5 990.106 607.003 859.773 476.895 699 476.895 538.227 476.895 407.894 607.003 407.894 767.5Z" fill="#FF0000" fill-rule="evenodd" fill-opacity="1"/></g></svg>